<svg width="264" height="264" viewBox="0 0 264 264" fill="none" xmlns="http://www.w3.org/2000/svg">
<circle cx="132" cy="132" r="132" fill="black"/>
<path d="M72 154.7C68.3 159.9 66.05 164.05 65.25 167.15C64.55 170.25 65.15 172.5 67.05 173.9C68.95 175.2 71.95 175.9 76.05 176L75.3 179C72.5 178.8 69.6 178.7 66.6 178.7C63.6 178.6 60.8 178.55 58.2 178.55C55.7 178.55 53.6 178.6 51.9 178.7C50.2 178.7 48.55 178.8 46.95 179L47.7 176C49.1 175.7 50.55 175.1 52.05 174.2C53.55 173.2 55.2 171.8 57 170C58.8 168.2 60.7 165.85 62.7 162.95L127.35 72.05C127.75 72.05 128.1 72.05 128.4 72.05C128.8 72.05 129.2 72.05 129.6 72.05L135.6 166.4C135.9 170 136.8 172.5 138.3 173.9C139.9 175.2 141.45 175.9 142.95 176L142.35 179C140.35 178.8 137.85 178.7 134.85 178.7C131.85 178.6 128.9 178.55 126 178.55C122.4 178.55 119 178.6 115.8 178.7C112.6 178.7 110 178.8 108 179L108.6 176C113.4 175.8 116.8 174.95 118.8 173.45C120.8 171.85 121.7 168.5 121.5 163.4L117.45 89.3L118.5 89L72 154.7ZM84 135.8H127.8L126.6 138.8H81.3L84 135.8Z" fill="white"/>
<path d="M210.84 71.384V74.424C207.395 74.5253 204.76 75.032 202.936 75.944C201.213 76.856 200.048 78.3253 199.44 80.352C198.832 82.3787 198.528 85.2667 198.528 89.016V179.76C197.92 179.76 197.312 179.76 196.704 179.76C196.197 179.76 195.64 179.76 195.032 179.76L131.192 81.112V161.368C131.192 165.016 131.496 167.904 132.104 170.032C132.813 172.059 134.131 173.528 136.056 174.44C138.083 175.251 141.072 175.757 145.024 175.96V179C143.2 178.797 140.819 178.696 137.88 178.696C134.941 178.595 132.155 178.544 129.52 178.544C126.987 178.544 124.403 178.595 121.768 178.696C119.235 178.696 117.107 178.797 115.384 179V175.96C118.829 175.757 121.413 175.251 123.136 174.44C124.96 173.528 126.176 172.059 126.784 170.032C127.392 167.904 127.696 165.016 127.696 161.368V87.496C127.696 83.7467 127.392 81.0107 126.784 79.288C126.176 77.464 124.96 76.248 123.136 75.64C121.413 74.9307 118.829 74.5253 115.384 74.424V71.384C117.107 71.4853 119.235 71.5867 121.768 71.688C124.403 71.7893 126.987 71.84 129.52 71.84C131.749 71.84 133.877 71.7893 135.904 71.688C137.931 71.5867 139.755 71.4853 141.376 71.384L195.032 154.072V89.016C195.032 85.2667 194.677 82.3787 193.968 80.352C193.36 78.3253 192.043 76.856 190.016 75.944C188.091 75.032 185.152 74.5253 181.2 74.424V71.384C183.024 71.4853 185.405 71.5867 188.344 71.688C191.384 71.7893 194.171 71.84 196.704 71.84C199.339 71.84 201.923 71.7893 204.456 71.688C207.091 71.5867 209.219 71.4853 210.84 71.384Z" fill="white"/>
</svg>
